<?xml version="1.0" encoding="utf-8"?>
<!-- Generator: Adobe Illustrator 25.0.1, SVG Export Plug-In . SVG Version: 6.00 Build 0)  -->
<svg version="1.1" id="Capa_1" xmlns="http://www.w3.org/2000/svg" xmlns:xlink="http://www.w3.org/1999/xlink" x="0px" y="0px"
	 viewBox="0 0 512 341.3" style="enable-background:new 0 0 512 341.3;" xml:space="preserve">
<style type="text/css">
	.st0{fill:#6DA544;}
	.st1{fill:#A2001D;}
	.st2{fill:#F0F0F0;}
</style>
<rect x="0.556" y="0.523" class="st0" width="511.444" height="340.955"/>
<polyline class="st1" points="0,230.298 511.444,230.298 511.444,0.52 511.444,0.52 0,0.52 0,0.52 "/>
<polygon class="st2" points="100.065,230.298 100.065,215.474 100.065,0.52 0,0.52 0,341.482 511.444,341.482 511.444,341.482 
	100.065,341.482 "/>
<g>
	<polygon class="st1" points="68.564,158.647 50.033,125.028 68.564,91.937 87.093,125.028 	"/>
	<polygon class="st1" points="31.502,158.647 12.972,125.028 31.502,91.937 50.033,125.028 	"/>
	<polygon class="st1" points="68.564,250.064 50.033,216.446 68.564,183.354 87.093,216.446 	"/>
	<polygon class="st1" points="31.502,250.064 12.972,216.446 31.502,183.354 50.033,216.446 	"/>
	<polygon class="st1" points="68.564,341.482 50.033,307.863 68.564,274.771 87.093,307.863 	"/>
	<polygon class="st1" points="31.502,341.482 12.972,307.863 31.502,274.771 50.033,307.863 	"/>
	<polygon class="st1" points="68.564,67.23 50.033,33.611 68.564,0.518 87.093,33.611 	"/>
	<polygon class="st1" points="31.502,67.23 12.972,33.611 31.502,0.518 50.033,33.611 	"/>
</g>
</svg>
