<?xml version="1.0" encoding="utf-8"?>
<!-- Generator: Adobe Illustrator 25.0.1, SVG Export Plug-In . SVG Version: 6.00 Build 0)  -->
<svg version="1.1" id="Capa_1" xmlns="http://www.w3.org/2000/svg" xmlns:xlink="http://www.w3.org/1999/xlink" x="0px" y="0px"
	 viewBox="0 0 512 341.3" style="enable-background:new 0 0 512 341.3;" xml:space="preserve">
<style type="text/css">
	.st0{fill:#D80027;}
	.st1{fill:#FFDA44;}
</style>
<rect class="st0" width="512" height="341.3"/>
<g>
	<polygon class="st1" points="178.9,104.2 193.6,149.3 241,149.3 202.6,177.2 217.3,222.3 178.9,194.5 140.6,222.3 155.2,177.2 
		116.8,149.3 164.3,149.3 	"/>
	<polygon class="st1" points="271.3,254.3 256.9,243.8 242.5,254.3 248,237.3 233.6,226.9 251.4,226.9 256.9,210 262.4,226.9 
		280.2,226.9 265.8,237.3 	"/>
	<polygon class="st1" points="308.8,202.6 291.1,202.6 285.6,219.5 280.1,202.6 262.3,202.6 276.7,192.1 271.2,175.2 285.6,185.7 
		299.9,175.2 294.4,192.1 	"/>
	<polygon class="st1" points="308.8,138.7 294.4,149.2 299.9,166.1 285.6,155.6 271.2,166.1 276.7,149.2 262.3,138.7 280.1,138.7 
		285.6,121.8 291.1,138.7 	"/>
	<polygon class="st1" points="271.3,87.1 265.8,104 280.2,114.4 262.4,114.4 256.9,131.4 251.4,114.4 233.6,114.4 248,104 
		242.5,87.1 256.9,97.5 	"/>
</g>
</svg>
