<?xml version="1.0" encoding="utf-8"?>
<!-- Generator: Adobe Illustrator 24.1.0, SVG Export Plug-In . SVG Version: 6.00 Build 0)  -->
<svg version="1.1" id="Capa_1" xmlns="http://www.w3.org/2000/svg" xmlns:xlink="http://www.w3.org/1999/xlink" x="0px" y="0px"
	 viewBox="0 0 512 341.3" style="enable-background:new 0 0 512 341.3;" xml:space="preserve">
<style type="text/css">
	.st0{fill:#FFFFFF;}
	.st1{fill:#D80027;}
	.st2{fill:#2E52B2;}
</style>
<rect class="st0" width="512" height="341.3"/>
<g>
	<rect y="42.7" class="st1" width="512" height="42.7"/>
	<rect y="128" class="st1" width="512" height="42.7"/>
	<rect y="213.3" class="st1" width="512" height="42.7"/>
	<rect y="298.7" class="st1" width="512" height="42.7"/>
</g>
<rect class="st2" width="256" height="183.8"/>
<g>
	<polygon class="st0" points="99.8,75.3 95.7,88 82.4,88 93.2,95.8 89,108.5 99.8,100.7 110.6,108.5 106.5,95.8 117.3,88 103.9,88 	
		"/>
	<polygon class="st0" points="103.9,133.7 99.8,121.1 95.7,133.7 82.4,133.7 93.2,141.6 89,154.3 99.8,146.4 110.6,154.3 
		106.5,141.6 117.3,133.7 	"/>
	<polygon class="st0" points="47.6,133.7 43.5,121.1 39.3,133.7 26,133.7 36.8,141.6 32.7,154.3 43.5,146.4 54.2,154.3 50.1,141.6 
		60.9,133.7 	"/>
	<polygon class="st0" points="43.5,75.3 39.3,88 26,88 36.8,95.8 32.7,108.5 43.5,100.7 54.2,108.5 50.1,95.8 60.9,88 47.6,88 	"/>
	<polygon class="st0" points="99.8,29.5 95.7,42.2 82.4,42.2 93.2,50 89,62.7 99.8,54.9 110.6,62.7 106.5,50 117.3,42.2 103.9,42.2 
			"/>
	<polygon class="st0" points="43.5,29.5 39.3,42.2 26,42.2 36.8,50 32.7,62.7 43.5,54.9 54.2,62.7 50.1,50 60.9,42.2 47.6,42.2 	"/>
	<polygon class="st0" points="156.2,75.3 152.1,88 138.7,88 149.5,95.8 145.4,108.5 156.2,100.7 167,108.5 162.8,95.8 173.6,88 
		160.3,88 	"/>
	<polygon class="st0" points="160.3,133.7 156.2,121.1 152.1,133.7 138.7,133.7 149.5,141.6 145.4,154.3 156.2,146.4 167,154.3 
		162.8,141.6 173.6,133.7 	"/>
	<polygon class="st0" points="216.7,133.7 212.5,121.1 208.4,133.7 195.1,133.7 205.9,141.6 201.8,154.3 212.5,146.4 223.3,154.3 
		219.2,141.6 230,133.7 	"/>
	<polygon class="st0" points="212.5,75.3 208.4,88 195.1,88 205.9,95.8 201.8,108.5 212.5,100.7 223.3,108.5 219.2,95.8 230,88 
		216.7,88 	"/>
	<polygon class="st0" points="156.2,29.5 152.1,42.2 138.7,42.2 149.5,50 145.4,62.7 156.2,54.9 167,62.7 162.8,50 173.6,42.2 
		160.3,42.2 	"/>
	<polygon class="st0" points="212.5,29.5 208.4,42.2 195.1,42.2 205.9,50 201.8,62.7 212.5,54.9 223.3,62.7 219.2,50 230,42.2 
		216.7,42.2 	"/>
</g>
</svg>
