<svg width="16" height="16" viewBox="0 0 16 16" fill="none" xmlns="http://www.w3.org/2000/svg">
<g clip-path="url(#clip0_891_87)">
<path d="M8 16C12.4183 16 16 12.4183 16 8C16 3.58172 12.4183 0 8 0C3.58172 0 0 3.58172 0 8C0 12.4183 3.58172 16 8 16Z" fill="#9B0032"/>
<path d="M8.00002 9.6C7.7103 9.59999 7.43184 9.48787 7.22294 9.28713C7.01405 9.08639 6.89093 8.81261 6.87939 8.52312L6.73158 4.79063C6.72565 4.63975 6.75024 4.48924 6.80388 4.3481C6.85753 4.20696 6.93911 4.0781 7.04376 3.96926C7.1484 3.86041 7.27395 3.77382 7.41286 3.71466C7.55178 3.65551 7.70121 3.62501 7.8522 3.625H8.14783C8.29882 3.62501 8.44825 3.65551 8.58717 3.71466C8.72609 3.77382 8.85163 3.86041 8.95627 3.96926C9.06092 4.0781 9.14251 4.20696 9.19615 4.3481C9.24979 4.48924 9.27439 4.63975 9.26845 4.79063L9.12064 8.52312C9.1091 8.81261 8.98599 9.08639 8.77709 9.28713C8.5682 9.48787 8.28973 9.59999 8.00002 9.6Z" fill="white"/>
<path d="M9.11968 11.2553C9.11968 10.6369 8.61838 10.1356 8 10.1356C7.38161 10.1356 6.88031 10.6369 6.88031 11.2553C6.88031 11.8737 7.38161 12.375 8 12.375C8.61838 12.375 9.11968 11.8737 9.11968 11.2553Z" fill="white"/>
</g>
<defs>
<clipPath id="clip0_891_87">
<rect width="16" height="16" fill="white"/>
</clipPath>
</defs>
</svg>
