<?xml version="1.0" encoding="utf-8"?>
<!-- Generator: Adobe Illustrator 25.0.1, SVG Export Plug-In . SVG Version: 6.00 Build 0)  -->
<svg version="1.1" id="Слой_1" xmlns="http://www.w3.org/2000/svg" xmlns:xlink="http://www.w3.org/1999/xlink" x="0px" y="0px"
	 viewBox="0 0 59.7 59.7" style="enable-background:new 0 0 59.7 59.7;" xml:space="preserve">
<style type="text/css">
	.st0{clip-path:url(#SVGID_2_);}
	.st1{clip-path:url(#SVGID_4_);fill:#FFC000;}
	.st2{clip-path:url(#SVGID_6_);}
	.st3{clip-path:url(#SVGID_8_);fill:#FF564E;}
	.st4{clip-path:url(#SVGID_10_);}
	.st5{clip-path:url(#SVGID_12_);fill:#FF9500;}
	.st6{clip-path:url(#SVGID_14_);}
	.st7{clip-path:url(#SVGID_16_);fill:#CF56DE;}
	.st8{clip-path:url(#SVGID_18_);}
	.st9{clip-path:url(#SVGID_20_);fill:#28BC00;}
	.st10{clip-path:url(#SVGID_22_);}
	.st11{clip-path:url(#SVGID_24_);fill:#0096FC;}
</style>
<g>
	<g>
		<g>
			<defs>
				<path id="SVGID_1_" d="M-12.7,36.7c-0.4-2.2-0.5-4.5-0.5-6.9c0-14,6.7-26.4,17-34.3C13.1-5,22.5-0.3,27.6,8.4
					c3.8,6.6,4.4,14.2,2.2,21c-8-8.5-21.2-10.7-31.7-4.5C-6.9,27.7-10.6,31.9-12.7,36.7z"/>
			</defs>
			<clipPath id="SVGID_2_">
				<use xlink:href="#SVGID_1_"  style="overflow:visible;"/>
			</clipPath>
			<g class="st0">
				<g>
					<g>
						<defs>
							<rect id="SVGID_3_" x="-241.9" y="-629.4" width="542.1" height="964.3"/>
						</defs>
						<clipPath id="SVGID_4_">
							<use xlink:href="#SVGID_3_"  style="overflow:visible;"/>
						</clipPath>
						<rect x="-20.5" y="-11.7" class="st1" width="58.8" height="55.7"/>
					</g>
				</g>
			</g>
		</g>
	</g>
</g>
<g>
	<g>
		<g>
			<defs>
				<path id="SVGID_5_" d="M45-10.6C59.3-5.2,70,7.5,72.4,23C68.3,31.8,59.4,38,49,38c-7.6,0-14.5-3.3-19.2-8.6
					c4.7-1.1,8.9-3.6,12.2-6.9c4.7-4.7,7.6-11.2,7.6-18.3C49.5-1.3,47.9-6.4,45-10.6z"/>
			</defs>
			<clipPath id="SVGID_6_">
				<use xlink:href="#SVGID_5_"  style="overflow:visible;"/>
			</clipPath>
			<g class="st2">
				<g>
					<g>
						<defs>
							<rect id="SVGID_7_" x="-241.9" y="-629.4" width="542.1" height="964.3"/>
						</defs>
						<clipPath id="SVGID_8_">
							<use xlink:href="#SVGID_7_"  style="overflow:visible;"/>
						</clipPath>
						<rect x="22.5" y="-17.8" class="st3" width="57.2" height="63"/>
					</g>
				</g>
			</g>
		</g>
	</g>
</g>
<g>
	<g>
		<g>
			<defs>
				<path id="SVGID_9_" d="M2.8-3.8c7.4-5.9,16.8-9.5,27-9.5c5.7,0,11.2,1.1,16.1,3.1c5.2,7.9,5.9,18.4,0.8,27.2
					C43,23.6,36.7,27.9,29.7,29.4c3.3-11.2-1.3-23.6-11.9-29.8C13.1-3.1,7.9-4.2,2.8-3.8z"/>
			</defs>
			<clipPath id="SVGID_10_">
				<use xlink:href="#SVGID_9_"  style="overflow:visible;"/>
			</clipPath>
			<g class="st4">
				<g>
					<g>
						<defs>
							<rect id="SVGID_11_" x="-241.9" y="-629.4" width="542.1" height="964.3"/>
						</defs>
						<clipPath id="SVGID_12_">
							<use xlink:href="#SVGID_11_"  style="overflow:visible;"/>
						</clipPath>
						<rect x="-4.4" y="-20.5" class="st5" width="61.9" height="57.1"/>
					</g>
				</g>
			</g>
		</g>
	</g>
</g>
<g>
	<g>
		<g>
			<defs>
				<path id="SVGID_13_" d="M72.2,21.5c0.5,2.7,0.8,5.5,0.8,8.3c0,13.4-6.1,25.4-15.7,33.3c-10.2,1.2-20.6-3.6-26-12.9
					c-3.9-6.8-4.4-14.5-2.1-21.5c8.1,8.4,21.4,10.4,32.3,4.1C66.2,30.1,69.9,26.1,72.2,21.5z"/>
			</defs>
			<clipPath id="SVGID_14_">
				<use xlink:href="#SVGID_13_"  style="overflow:visible;"/>
			</clipPath>
			<g class="st6">
				<g>
					<g>
						<defs>
							<rect id="SVGID_15_" x="-241.9" y="-629.4" width="542.1" height="964.3"/>
						</defs>
						<clipPath id="SVGID_16_">
							<use xlink:href="#SVGID_15_"  style="overflow:visible;"/>
						</clipPath>
						<rect x="20.5" y="14.3" class="st7" width="59.7" height="56.3"/>
					</g>
				</g>
			</g>
		</g>
	</g>
</g>
<g>
	<g>
		<g>
			<defs>
				<path id="SVGID_17_" d="M14.6,70.2C-0.2,64.6-11.1,51.1-13,34.9c4.3-8.7,13.3-14.6,23.7-14.5c7.6,0.1,14.4,3.6,19.1,8.9
					C18.3,31.9,9.7,42,9.5,54.2C9.4,60.2,11.3,65.8,14.6,70.2z"/>
			</defs>
			<clipPath id="SVGID_18_">
				<use xlink:href="#SVGID_17_"  style="overflow:visible;"/>
			</clipPath>
			<g class="st8">
				<g>
					<g>
						<defs>
							<rect id="SVGID_19_" x="-241.9" y="-629.4" width="542.1" height="964.3"/>
						</defs>
						<clipPath id="SVGID_20_">
							<use xlink:href="#SVGID_19_"  style="overflow:visible;"/>
						</clipPath>
						<rect x="-20.2" y="13.2" class="st9" width="57.2" height="64.3"/>
					</g>
				</g>
			</g>
		</g>
	</g>
</g>
<g>
	<g>
		<g>
			<defs>
				<path id="SVGID_21_" d="M58.1,62.4C50.6,69,40.7,73,29.8,73c-5.5,0-10.7-1-15.5-2.9c-6-8-7-19.2-1.7-28.4
					c3.8-6.6,10.1-10.9,17.1-12.4C26.4,40.6,31.1,53,41.7,59.1C46.9,62.1,52.6,63.1,58.1,62.4z"/>
			</defs>
			<clipPath id="SVGID_22_">
				<use xlink:href="#SVGID_21_"  style="overflow:visible;"/>
			</clipPath>
			<g class="st10">
				<g>
					<g>
						<defs>
							<rect id="SVGID_23_" x="-241.9" y="-629.4" width="542.1" height="964.3"/>
						</defs>
						<clipPath id="SVGID_24_">
							<use xlink:href="#SVGID_23_"  style="overflow:visible;"/>
						</clipPath>
						<rect x="2" y="22.1" class="st11" width="63.4" height="58.1"/>
					</g>
				</g>
			</g>
		</g>
	</g>
</g>
</svg>
