<?xml version="1.0" encoding="utf-8"?>
<!-- Generator: Adobe Illustrator 27.0.0, SVG Export Plug-In . SVG Version: 6.00 Build 0)  -->
<svg version="1.1" id="Layer_1" xmlns="http://www.w3.org/2000/svg" xmlns:xlink="http://www.w3.org/1999/xlink" x="0px" y="0px"
	 viewBox="0 0 16 16" style="enable-background:new 0 0 16 16;" xml:space="preserve">
<style type="text/css">
	.st0{fill:#000;}
	.st1{fill-rule:evenodd;clip-rule:evenodd;fill:#000;}
</style>
<g>
	<path class="st0" d="M12.2,6.3C10.2,6.3,8.5,8,8.5,10s1.7,3.8,3.8,3.8S16,12.1,16,10S14.3,6.3,12.2,6.3z M9.4,10
		c0-1.6,1.3-2.8,2.8-2.8s2.8,1.3,2.8,2.8c0,0.3,0,0.6-0.1,0.8l-1.8-1.8L10.3,12C9.8,11.5,9.4,10.8,9.4,10z"/>
	<path class="st0" d="M11.6,8.6c0.3,0.3,0.3,0.7,0,1c-0.3,0.3-0.7,0.3-1,0c-0.3-0.3-0.3-0.7,0-1C10.9,8.3,11.3,8.3,11.6,8.6"/>
</g>
<path class="st0" d="M6.2,0C4.1,0,2.4,1.7,2.4,3.8s1.7,3.8,3.8,3.8c0.7,0,1.3-0.2,1.9-0.5L7.6,6.2C7.2,6.4,6.7,6.6,6.2,6.6
	c-1.6,0-2.8-1.3-2.8-2.8s1.3-2.8,2.8-2.8S9,2.2,9,3.7v0.4c0,0.3-0.2,0.5-0.5,0.5c-0.3,0-0.5-0.2-0.5-0.5V2.3H7.4
	C7.1,2.1,6.7,1.9,6.2,1.9c-1,0-1.9,0.8-1.9,1.9s0.8,1.9,1.9,1.9c0.5,0,0.9-0.2,1.3-0.5c0.3,0.3,0.6,0.5,1.1,0.5
	c0.8,0,1.4-0.6,1.4-1.5V3.8C9.9,1.7,8.3,0,6.2,0z M6.2,4.7c-0.5,0-0.9-0.4-0.9-0.9c0-0.5,0.4-0.9,0.9-0.9c0.5,0,0.9,0.4,0.9,0.9
	C7.1,4.3,6.7,4.7,6.2,4.7z"/>
<g>
	<path class="st1" d="M3.7,8.5c0.7,0,1.3,0.2,1.9,0.5c0.6,0.3,1,0.8,1.3,1.4c0.3,0.6,0.5,1.2,0.5,1.9c0,1-0.3,1.8-0.9,2.5
		C6,15.4,5.3,15.8,4.5,16v-2.7h0.7l0.2-1.1H4.3v-0.7c0-0.1,0-0.3,0.1-0.4C4.5,11,4.6,11,4.9,11h0.7V10c0,0-0.1,0-0.3,0
		c-0.2,0-0.4,0-0.6,0c-0.4,0-0.8,0.1-1.1,0.4c-0.3,0.3-0.4,0.6-0.4,1.1v0.8H2.4v1.1h0.8V16c-1-0.2-1.7-0.6-2.3-1.3S0,13.2,0,12.3
		c0-0.7,0.2-1.3,0.5-1.9c0.3-0.6,0.8-1,1.3-1.4C2.4,8.7,3.1,8.5,3.7,8.5L3.7,8.5z"/>
</g>
</svg>
