<svg width="20" height="20" viewBox="0 0 20 20" fill="none" xmlns="http://www.w3.org/2000/svg">
<g clip-path="url(#clip0_335_60)">
<path d="M17.5 3.17859L16.3215 2.00009L14.4523 3.8696C13.0826 3.20559 11.5803 2.83338 9.99988 2.83338C5.7242 2.83338 2.00022 5.51885 0 9.50005C0.98324 11.4573 2.38698 13.093 4.06421 14.2582L2.50021 15.8215L3.67872 17L5.54471 15.134L7.70542 12.974H7.70469L17.5 3.17859ZM5.83342 9.50005C5.83342 7.19856 7.69864 5.33335 10.0001 5.33335C10.8496 5.33335 11.6341 5.59311 12.2918 6.03007L11.0718 7.24978C10.7453 7.09451 10.3859 7.00003 10.0001 7.00003C8.61913 7.00003 7.50015 8.11901 7.50015 9.5C7.50015 9.88501 7.59463 10.2462 7.74991 10.5717L6.53019 11.7917C6.09392 11.134 5.83342 10.3495 5.83342 9.50005ZM17.242 5.79331L14.1091 8.92628C14.135 9.11602 14.1668 9.30401 14.1668 9.5C14.1668 11.8015 12.3016 13.6667 10.0001 13.6667C9.8031 13.6667 9.61614 13.635 9.4264 13.6089L7.25592 15.7801C8.13564 16.0284 9.05292 16.1669 10.0001 16.1669C14.2758 16.1669 17.9998 13.4822 20 9.50024C19.2848 8.07604 18.3455 6.82181 17.242 5.79331Z" fill="white"/>
</g>
<defs>
<clipPath id="clip0_335_60">
<rect width="20" height="15" fill="white" transform="translate(0 2)"/>
</clipPath>
</defs>
</svg>
