<svg width="20" height="20" viewBox="0 0 20 20" fill="none" xmlns="http://www.w3.org/2000/svg">
<g clip-path="url(#clip0_928_856)">
<path d="M10 20C4.40042 20 2.89313 19.7165 1.58833 18.4117C0.275625 17.099 0 15.5996 0 10C0 4.40042 0.283542 2.90104 1.58833 1.58833C2.89313 0.283542 4.40042 0 10 0C15.5996 0 17.1069 0.283542 18.4117 1.58833C19.7244 2.90104 20 4.40042 20 10C20 15.5996 19.7244 17.099 18.4117 18.4117C17.1069 19.7165 15.5996 20 10 20Z" fill="#DEE0E8"/>
<path d="M11.9526 5.42297C10.5092 5.51964 9.42071 6.78443 9.42071 8.23068V11.6551C9.42071 12.6778 8.93112 13.2767 8.26341 13.3417C7.49716 13.4169 6.84883 12.8142 6.84883 12.0628V9.32943C6.84883 8.96818 6.63154 8.64214 6.298 8.50276L6.03612 8.39318C5.74175 8.27047 5.41675 8.48693 5.41675 8.80651V11.9671C5.41675 13.4132 6.50529 14.6782 7.94862 14.7748C9.53133 14.8807 10.8538 13.6232 10.8538 12.0628V10.3232H13.4247V10.8694C13.4247 11.2307 13.642 11.5567 13.9755 11.6961L14.2374 11.8057C14.5328 11.9284 14.8567 11.7119 14.8567 11.3923V8.13506C14.8578 6.57464 13.5353 5.31714 11.9526 5.42297ZM13.4247 8.8911H10.8538V8.13506C10.8538 7.42631 11.4305 6.84964 12.1392 6.84964C12.848 6.84964 13.4247 7.42631 13.4247 8.13506V8.8911Z" fill="white"/>
</g>
<defs>
<clipPath id="clip0_928_856">
<rect width="20" height="20" fill="white"/>
</clipPath>
</defs>
</svg>
