<svg width="296" height="183" viewBox="0 0 296 183" fill="none" xmlns="http://www.w3.org/2000/svg">
<path d="M272.32 11.8125C278.859 11.8125 284.16 6.52384 284.16 0H296V182.5H0V0H11.84C11.84 6.52384 17.1408 11.8125 23.68 11.8125C30.2192 11.8125 35.52 6.52384 35.52 0H47.36C47.36 6.52384 52.6608 11.8125 59.2 11.8125C65.7392 11.8125 71.04 6.52384 71.04 0H82.88C82.88 6.52384 88.1808 11.8125 94.72 11.8125C101.259 11.8125 106.56 6.52384 106.56 0H118.4C118.4 6.52384 123.701 11.8125 130.24 11.8125C136.779 11.8125 142.08 6.52384 142.08 0H153.92C153.92 6.52384 159.221 11.8125 165.76 11.8125C172.299 11.8125 177.6 6.52384 177.6 0H189.44C189.44 6.52384 194.741 11.8125 201.28 11.8125C207.819 11.8125 213.12 6.52384 213.12 0H224.96C224.96 6.52384 230.261 11.8125 236.8 11.8125C243.339 11.8125 248.64 6.52384 248.64 0H260.48C260.48 6.52384 265.781 11.8125 272.32 11.8125Z" fill="url(#paint0_linear_907_665)"/>
<defs>
<linearGradient id="paint0_linear_907_665" x1="148" y1="0" x2="148" y2="182" gradientUnits="userSpaceOnUse">
<stop stop-color="#FFF"/>
<stop offset="1" stop-color="#FFF" stop-opacity="0"/>
</linearGradient>
</defs>
</svg>
