<svg width="16" height="16" viewBox="0 0 16 16" fill="none" xmlns="http://www.w3.org/2000/svg">
<g clip-path="url(#clip0_566_84)">
<path d="M14.7333 9.86956L16 8.13623L14.7333 6.4029C14.6667 6.33623 14.6667 6.26956 14.6667 6.2029L14.9333 4.13623L13 3.26956C12.9333 3.26956 12.8667 3.2029 12.8667 3.13623L12 1.2029L9.86667 1.4029C9.8 1.4029 9.73333 1.4029 9.66667 1.33623L8 0.13623L6.26667 1.4029C6.26667 1.4029 6.13333 1.4029 6.06667 1.4029L4 1.2029L3.13333 3.13623C3.13333 3.2029 3.06667 3.26956 3 3.26956L1.06667 4.13623L1.26667 6.2029C1.26667 6.26956 1.26667 6.33623 1.2 6.4029L0 8.13623L1.26667 9.86956C1.33333 9.93623 1.33333 10.0029 1.33333 10.0696L1.06667 12.1362L3 13.0029C3.06667 13.0029 3.13333 13.0696 3.13333 13.1362L4 15.0696L6.06667 14.8696C6.13333 14.8696 6.2 14.8696 6.2 14.9362L8 16.1362L9.73333 14.8696C9.8 14.8029 9.86667 14.8029 9.93333 14.8029L12.0667 15.0029L12.9333 13.0696C12.9333 13.0029 13 12.9362 13.0667 12.9362L15 12.0696L14.8 10.0029C14.7333 10.0029 14.7333 9.86956 14.7333 9.86956Z" fill="url(#paint0_linear_566_84)"/>
</g>
<defs>
<linearGradient id="paint0_linear_566_84" x1="-0.111664" y1="0.0246297" x2="16.0372" y2="16.1735" gradientUnits="userSpaceOnUse">
<stop offset="0.151042" stop-color="#E96ACB"/>
<stop offset="0.606851" stop-color="#A849D3"/>
<stop offset="0.848585" stop-color="#2B27EA"/>
</linearGradient>
<clipPath id="clip0_566_84">
<rect width="16" height="16" fill="white"/>
</clipPath>
</defs>
</svg>
