<svg width="12" height="12" viewBox="0 0 12 12" fill="none" xmlns="http://www.w3.org/2000/svg">
<path d="M2.84048 3C3.21098 3 3.5506 3.05489 3.85935 3.16467C4.17153 3.27101 4.45283 3.41166 4.70326 3.58662C4.95712 3.75815 5.1801 3.93997 5.37221 4.13208C5.49571 4.24528 5.60892 4.36192 5.71183 4.48199C5.81818 4.60206 5.91767 4.7187 6.01029 4.8319C6.09262 4.7187 6.1801 4.6072 6.27273 4.49743C6.36535 4.38765 6.4837 4.26587 6.62779 4.13208C6.91595 3.84391 7.27101 3.58319 7.69297 3.34991C8.11835 3.11664 8.61406 3 9.1801 3C9.70154 3 10.175 3.12693 10.6003 3.38079C11.0292 3.63122 11.3688 3.97084 11.6192 4.39966C11.8731 4.82504 12 5.29846 12 5.8199C12 6.21441 11.9262 6.58491 11.7787 6.93139C11.6346 7.27444 11.434 7.57633 11.1767 7.83705C10.9194 8.09434 10.6192 8.29674 10.2762 8.44425C9.93653 8.58834 9.57118 8.66038 9.1801 8.66038C8.80274 8.66038 8.45626 8.6072 8.14065 8.50086C7.82847 8.39108 7.54545 8.25214 7.29159 8.08405C7.04116 7.91252 6.8199 7.73413 6.62779 7.54888C6.50429 7.42539 6.39108 7.3036 6.28816 7.18353C6.18525 7.06003 6.09262 6.94168 6.01029 6.82847C5.91767 6.94168 5.81818 7.06003 5.71183 7.18353C5.60892 7.3036 5.49571 7.42539 5.37221 7.54888C5.1801 7.73413 4.95712 7.91252 4.70326 8.08405C4.45283 8.25214 4.17153 8.39108 3.85935 8.50086C3.5506 8.6072 3.21098 8.66038 2.84048 8.66038C2.31218 8.66038 1.83362 8.53345 1.4048 8.27959C0.975986 8.02573 0.634648 7.68439 0.380789 7.25557C0.126929 6.82676 0 6.3482 0 5.8199C0 5.42882 0.0720408 5.06346 0.216123 4.72384C0.363636 4.38079 0.566037 4.08062 0.823327 3.82333C1.08405 3.56604 1.38593 3.36535 1.72899 3.22127C2.07547 3.07376 2.44597 3 2.84048 3ZM1.17324 5.8199C1.17324 6.12864 1.247 6.40995 1.39451 6.66381C1.54545 6.91424 1.74614 7.11492 1.99657 7.26587C2.25043 7.41338 2.53173 7.48714 2.84048 7.48714C3.1801 7.48714 3.49057 7.40995 3.77187 7.25557C4.05317 7.1012 4.31218 6.91081 4.54889 6.68439C4.70326 6.53002 4.83876 6.38079 4.9554 6.23671C5.07204 6.09262 5.17667 5.95369 5.2693 5.8199C5.17667 5.6964 5.07376 5.56432 4.96055 5.42367C4.85077 5.27959 4.71355 5.13036 4.54889 4.97599C4.32247 4.74957 4.06518 4.55918 3.77701 4.4048C3.49228 4.25043 3.1801 4.17324 2.84048 4.17324C2.53173 4.17324 2.25043 4.24871 1.99657 4.39966C1.74614 4.54717 1.54545 4.74614 1.39451 4.99657C1.247 5.24357 1.17324 5.51801 1.17324 5.8199ZM10.8268 5.8199C10.8268 5.51801 10.7513 5.24357 10.6003 4.99657C10.4528 4.74614 10.2539 4.54717 10.0034 4.39966C9.75643 4.24871 9.48199 4.17324 9.1801 4.17324C8.94682 4.17324 8.72727 4.20926 8.52144 4.2813C8.31561 4.34991 8.1235 4.44597 7.94511 4.56947C7.76672 4.68954 7.60206 4.82504 7.45112 4.97599C7.26587 5.15094 7.11149 5.32075 6.98799 5.48542C6.86792 5.64665 6.78216 5.75815 6.7307 5.8199C6.82333 5.95369 6.92796 6.09262 7.0446 6.23671C7.16124 6.38079 7.29674 6.53002 7.45112 6.68439C7.68782 6.91081 7.94682 7.1012 8.22813 7.25557C8.51286 7.40995 8.83019 7.48714 9.1801 7.48714C9.48199 7.48714 9.75643 7.41338 10.0034 7.26587C10.2539 7.11492 10.4528 6.91424 10.6003 6.66381C10.7513 6.40995 10.8268 6.12864 10.8268 5.8199Z" fill="black"/>
</svg>
