<svg width="24" height="24" viewBox="0 0 24 24" fill="none" xmlns="http://www.w3.org/2000/svg">
<path d="M10.2104 0.43261C11.2095 -0.144203 12.4404 -0.144203 13.4394 0.43261L21.0353 4.81809C22.0344 5.3949 22.6498 6.4609 22.6498 7.61452V16.3855C22.6498 17.5391 22.0344 18.6051 21.0353 19.1819L13.4394 23.5674C12.4404 24.1442 11.2095 24.1442 10.2104 23.5674L2.61452 19.1819C1.61545 18.6051 1 17.5391 1 16.3855V7.61452C1 6.4609 1.61545 5.3949 2.61452 4.81809L10.2104 0.43261Z" fill="#315EFB"/>
<path d="M16.5 10.2L10.8 15.9C10.7 16 10.5 16 10.3 15.9L7.5 13.1C7.4 13 7.4 13 7.4 12.9C7.4 12.8 7.4 12.7 7.5 12.7L8.4 11.8C8.5 11.7 8.7 11.7 8.9 11.8L10.5 13.4L15 8.89995C15.1 8.79995 15.3 8.79995 15.5 8.89995L16.4 9.79995C16.6 9.89995 16.6 10.1 16.5 10.2Z" fill="white"/>
</svg>
