<svg width="24" height="24" viewBox="0 0 24 24" fill="none" xmlns="http://www.w3.org/2000/svg">
<g clip-path="url(#clip0_536_16375)">
<path d="M22.1 14.6L24 12L22.1 9.4C22 9.3 22 9.2 22 9.1L22.4 6L19.5 4.7C19.4 4.7 19.3 4.6 19.3 4.5L18 1.6L14.8 1.9C14.7 1.9 14.6 1.9 14.5 1.8L12 0L9.4 1.9C9.4 1.9 9.2 1.9 9.1 1.9L6 1.6L4.7 4.5C4.7 4.6 4.6 4.7 4.5 4.7L1.6 6L1.9 9.1C1.9 9.2 1.9 9.3 1.8 9.4L0 12L1.9 14.6C2 14.7 2 14.8 2 14.9L1.6 18L4.5 19.3C4.6 19.3 4.7 19.4 4.7 19.5L6 22.4L9.1 22.1C9.2 22.1 9.3 22.1 9.3 22.2L12 24L14.6 22.1C14.7 22 14.8 22 14.9 22L18.1 22.3L19.4 19.4C19.4 19.3 19.5 19.2 19.6 19.2L22.5 17.9L22.2 14.8C22.1 14.8 22.1 14.6 22.1 14.6Z" fill="#315EFB"/>
<path d="M16.5 10.2L10.8 15.9C10.7 16 10.5 16 10.3 15.9L7.5 13.1C7.4 13 7.4 13 7.4 12.9C7.4 12.8 7.4 12.7 7.5 12.7L8.4 11.8C8.5 11.7 8.7 11.7 8.9 11.8L10.5 13.4L15 8.89995C15.1 8.79995 15.3 8.79995 15.5 8.89995L16.4 9.79995C16.6 9.89995 16.6 10.1 16.5 10.2Z" fill="white"/>
</g>
<defs>
<clipPath id="clip0_536_16375">
<rect width="24" height="24" fill="white"/>
</clipPath>
</defs>
</svg>
