<?xml version="1.0" encoding="utf-8"?>
<!-- Generator: Adobe Illustrator 27.0.0, SVG Export Plug-In . SVG Version: 6.00 Build 0)  -->
<svg version="1.1" id="Layer_1" xmlns="http://www.w3.org/2000/svg" xmlns:xlink="http://www.w3.org/1999/xlink" x="0px" y="0px"
	 viewBox="0 0 20 20" style="enable-background:new 0 0 20 20;" xml:space="preserve">
<style type="text/css">
	.st0{fill:#2A5EFB;}
</style>
<g>
	<path class="st0" d="M13.32,0H6.68C3,0,0,3,0,6.68v6.64C0,17,3,20,6.68,20h6.64C17,20,20,17,20,13.32V6.68C20,3,17,0,13.32,0z
		 M17.98,13.32c0,2.57-2.09,4.66-4.66,4.66H6.68c-2.57,0-4.66-2.09-4.66-4.66V6.68c0-2.57,2.09-4.66,4.66-4.66h6.64
		c2.57,0,4.66,2.09,4.66,4.66V13.32z"/>
	<path class="st0" d="M12.31,9H11V7.69c0-0.55-0.45-1-1-1s-1,0.45-1,1V9H7.69c-0.55,0-1,0.45-1,1s0.45,1,1,1H9v1.31
		c0,0.55,0.45,1,1,1s1-0.45,1-1V11h1.31c0.55,0,1-0.45,1-1S12.87,9,12.31,9z"/>
</g>
</svg>
