<svg width="16" height="17" viewBox="0 0 16 17" fill="none" xmlns="http://www.w3.org/2000/svg">
<path d="M11.755 7.25505H9.24541V4.74541C9.24541 4.0604 8.68501 3.5 8 3.5C7.31536 3.5 6.75505 4.0604 6.75505 4.74541V7.25505H4.24541C3.5604 7.25505 3 7.81536 3 8.5C3 9.18501 3.5604 9.74541 4.24541 9.74541H6.75505V12.255C6.75505 12.9396 7.31536 13.5 8 13.5C8.68501 13.5 9.24541 12.9396 9.24541 12.255V9.74541H11.755C12.4396 9.74541 13 9.18501 13 8.5C13 7.81536 12.4396 7.25505 11.755 7.25505Z" fill="black" fill-opacity="0.24"/>
</svg>
