<svg width="12" height="12" viewBox="0 0 12 12" fill="none" xmlns="http://www.w3.org/2000/svg">
<g clip-path="url(#clip0_1712_3230)">
<path d="M7.46006 7.46006C9.32164 7.42493 10.9173 7.32458 11.118 7.14394C11.6198 6.70237 11.6348 5.28235 11.118 4.85584C10.9073 4.68523 9.32666 4.57986 7.46507 4.54474C7.445 3.54118 7.40988 2.62293 7.34966 1.95056C7.2744 1.13266 6.69736 0.455263 6.01494 0.50544C6.01494 0.50544 6.01494 0.50544 6.0049 0.50544C5.59847 0.470316 5.19203 0.605795 4.86086 0.896825C4.68523 1.10255 4.57986 2.68315 4.54474 4.54474C3.54118 4.56481 2.62293 4.59993 1.95056 4.66014C1.13266 4.73541 0.455263 5.30242 0.50544 5.98483C0.50544 5.98483 0.50544 5.98483 0.50544 5.99487C0.470316 6.40131 0.605795 6.80775 0.896825 7.13892C1.10255 7.31454 2.68817 7.4149 4.54474 7.45504C4.57986 9.31663 4.68022 10.9123 4.86086 11.113C5.2974 11.6198 6.71743 11.6348 7.14895 11.113C7.31956 10.9022 7.42493 9.32164 7.46006 7.45002L7.46006 7.46006Z" fill="black"/>
</g>
<defs>
<clipPath id="clip0_1712_3230">
<rect width="12" height="12" fill="white"/>
</clipPath>
</defs>
</svg>
