<svg width="12" height="12" viewBox="0 0 12 12" fill="none" xmlns="http://www.w3.org/2000/svg">
<g clip-path="url(#clip0_1712_3197)">
<path d="M0.00573389 2.03465C-0.0318132 2.32214 0.118101 2.60745 0.429441 2.84013C0.992921 3.1501 11.0287 3.1501 11.5804 2.84013C12.1321 2.53016 12.148 1.53064 11.5804 1.22944C11.0128 0.927967 0.980862 0.919197 0.429441 1.22917C0.118101 1.46185 -0.0320873 1.74715 0.00573389 2.03465Z" fill="black"/>
<path d="M0.00573389 5.968C-0.0318132 6.2555 0.118101 6.5408 0.429441 6.77348C0.992921 7.08345 11.0287 7.08345 11.5804 6.77348C12.1321 6.46351 12.148 5.46399 11.5804 5.16279C11.0128 4.86159 0.981136 4.85282 0.429441 5.16279C0.118101 5.3952 -0.0320873 5.68051 0.00573389 5.968Z" fill="black"/>
<path d="M0.0057888 9.90159C-0.0317583 10.1891 0.118156 10.4744 0.429496 10.7071C0.992976 11.017 11.0287 11.017 11.5804 10.7071C12.1321 10.3971 12.148 9.39759 11.5804 9.09639C11.0128 8.79519 0.981191 8.78642 0.429496 9.09639C0.118156 9.32907 -0.0317583 9.61437 0.0057888 9.90187V9.90159Z" fill="black"/>
</g>
<defs>
<clipPath id="clip0_1712_3197">
<rect width="12" height="12" fill="white"/>
</clipPath>
</defs>
</svg>
