<svg width="24" height="24" viewBox="0 0 24 24" fill="none" xmlns="http://www.w3.org/2000/svg">
<path d="M19.4011 17.1603C19.3111 16.7203 17.3011 14.4903 14.9011 12.0303C17.3011 9.57034 19.3211 7.34034 19.3911 6.90034C19.5711 5.84034 18.1811 4.41034 17.1111 4.62034C16.6711 4.71034 14.4411 6.72034 11.9811 9.12034C10.6111 7.78034 9.31113 6.56034 8.36113 5.73034C7.29113 4.80034 5.89113 4.53034 5.28113 5.28034C5.28113 5.28034 5.28113 5.28034 5.27113 5.29034C4.82113 5.66034 4.58113 6.23034 4.60113 6.91034C4.68113 7.36034 6.69113 9.58034 9.08113 12.0303C7.74113 13.4003 6.52113 14.7003 5.69113 15.6503C4.76113 16.7303 4.49113 18.1303 5.24113 18.7503C5.24113 18.7503 5.24113 18.7503 5.25113 18.7603C5.61113 19.2103 6.19113 19.4403 6.86113 19.4203C7.31113 19.3403 9.53113 17.3303 11.9811 14.9403C14.4411 17.3403 16.6711 19.3603 17.1111 19.4303C18.1711 19.6103 19.6011 18.2203 19.3911 17.1503L19.4011 17.1603Z" fill="url(#paint0_linear_1700_2282)"/>
<path d="M19.4011 17.1603C19.3111 16.7203 17.3011 14.4903 14.9011 12.0303C17.3011 9.57034 19.3211 7.34034 19.3911 6.90034C19.5711 5.84034 18.1811 4.41034 17.1111 4.62034C16.6711 4.71034 14.4411 6.72034 11.9811 9.12034C10.6111 7.78034 9.31113 6.56034 8.36113 5.73034C7.29113 4.80034 5.89113 4.53034 5.28113 5.28034C5.28113 5.28034 5.28113 5.28034 5.27113 5.29034C4.82113 5.66034 4.58113 6.23034 4.60113 6.91034C4.68113 7.36034 6.69113 9.58034 9.08113 12.0303C7.74113 13.4003 6.52113 14.7003 5.69113 15.6503C4.76113 16.7303 4.49113 18.1303 5.24113 18.7503C5.24113 18.7503 5.24113 18.7503 5.25113 18.7603C5.61113 19.2103 6.19113 19.4403 6.86113 19.4203C7.31113 19.3403 9.53113 17.3303 11.9811 14.9403C14.4411 17.3403 16.6711 19.3603 17.1111 19.4303C18.1711 19.6103 19.6011 18.2203 19.3911 17.1503L19.4011 17.1603Z" fill="url(#paint1_linear_1700_2282)"/>
<defs>
<linearGradient id="paint0_linear_1700_2282" x1="10.3911" y1="21.4103" x2="13.6411" y2="2.61034" gradientUnits="userSpaceOnUse">
<stop stop-color="#C0C8CC"/>
<stop offset="1" stop-color="#343842"/>
</linearGradient>
<linearGradient id="paint1_linear_1700_2282" x1="8.91658" y1="8.24871" x2="17.2265" y2="19.5199" gradientUnits="userSpaceOnUse">
<stop stop-color="#DB4878"/>
<stop offset="1" stop-color="#9B0032"/>
</linearGradient>
</defs>
</svg>
