<svg width="24" height="24" viewBox="0 0 24 24" fill="none" xmlns="http://www.w3.org/2000/svg">
<g clip-path="url(#clip0_1690_1372)">
<path d="M9.87966 1.22733C8.21861 -0.385742 2.89545 -0.432315 1.24591 1.22733C-0.415141 2.87548 -0.415141 8.24071 1.24591 9.85379C2.49294 10.7639 4.02238 11.2028 5.56279 11.0926C7.1032 11.2028 8.63264 10.7639 9.87966 9.85379C11.5407 8.20565 11.5407 2.84041 9.87966 1.22733ZM7.27703 7.23199C6.78568 7.59033 6.18356 7.76347 5.5765 7.72019C4.96998 7.76347 4.36731 7.59088 3.87596 7.23199C3.22174 6.5964 3.22174 4.48308 3.87596 3.83379C4.52579 3.18012 6.62226 3.1982 7.27703 3.83379C7.93125 4.46938 7.93125 6.58271 7.27703 7.23199Z" fill="black"/>
<path d="M9.87966 1.22733C8.21861 -0.385742 2.89545 -0.432315 1.24591 1.22733C-0.415141 2.87548 -0.415141 8.24071 1.24591 9.85379C2.49294 10.7639 4.02238 11.2028 5.56279 11.0926C7.1032 11.2028 8.63264 10.7639 9.87966 9.85379C11.5407 8.20565 11.5407 2.84041 9.87966 1.22733ZM7.27703 7.23199C6.78568 7.59033 6.18356 7.76347 5.5765 7.72019C4.96998 7.76347 4.36731 7.59088 3.87596 7.23199C3.22174 6.5964 3.22174 4.48308 3.87596 3.83379C4.52579 3.18012 6.62226 3.1982 7.27703 3.83379C7.93125 4.46938 7.93125 6.58271 7.27703 7.23199Z" fill="url(#paint0_linear_1690_1372)"/>
<path d="M22.7667 1.24882C21.1057 -0.364258 15.7474 -0.410831 14.133 1.24882C13.2221 2.49479 12.7828 4.02294 12.8931 5.56205C12.7828 7.10116 13.2221 8.6293 14.133 9.87527C15.7825 11.5349 21.1523 11.5349 22.7667 9.87527C24.3812 8.21562 24.4278 2.8619 22.7667 1.24882ZM20.1092 7.23211C19.6179 7.59045 19.0158 7.76359 18.4087 7.7203C17.8022 7.76359 17.1995 7.591 16.7082 7.23211C16.0539 6.59652 16.0539 4.48319 16.7082 3.83391C17.358 3.18024 19.4545 3.19832 20.1092 3.83391C20.7635 4.46949 20.7635 6.58282 20.1092 7.23211Z" fill="black"/>
<path d="M22.7667 1.24882C21.1057 -0.364258 15.7474 -0.410831 14.133 1.24882C13.2221 2.49479 12.7828 4.02294 12.8931 5.56205C12.7828 7.10116 13.2221 8.6293 14.133 9.87527C15.7825 11.5349 21.1523 11.5349 22.7667 9.87527C24.3812 8.21562 24.4278 2.8619 22.7667 1.24882ZM20.1092 7.23211C19.6179 7.59045 19.0158 7.76359 18.4087 7.7203C17.8022 7.76359 17.1995 7.591 16.7082 7.23211C16.0539 6.59652 16.0539 4.48319 16.7082 3.83391C17.358 3.18024 19.4545 3.19832 20.1092 3.83391C20.7635 4.46949 20.7635 6.58282 20.1092 7.23211Z" fill="url(#paint1_linear_1690_1372)"/>
<path d="M22.7667 1.24882C21.1057 -0.364258 15.7474 -0.410831 14.133 1.24882C13.2221 2.49479 12.7828 4.02294 12.8931 5.56205C12.7828 7.10116 13.2221 8.6293 14.133 9.87527C15.7825 11.5349 21.1523 11.5349 22.7667 9.87527C24.3812 8.21562 24.4278 2.8619 22.7667 1.24882ZM20.1092 7.23211C19.6179 7.59045 19.0158 7.76359 18.4087 7.7203C17.8022 7.76359 17.1995 7.591 16.7082 7.23211C16.0539 6.59652 16.0539 4.48319 16.7082 3.83391C17.358 3.18024 19.4545 3.19832 20.1092 3.83391C20.7635 4.46949 20.7635 6.58282 20.1092 7.23211Z" fill="url(#paint2_linear_1690_1372)"/>
<path d="M9.87966 14.1033C8.21861 12.4902 2.89545 12.4437 1.24591 14.1033C-0.415141 15.7515 -0.415141 21.1167 1.24591 22.7298C2.49294 23.6399 4.02238 24.0787 5.56279 23.9686C7.1032 24.0787 8.63264 23.6399 9.87966 22.7298C11.5407 21.0816 11.5407 15.7164 9.87966 14.1033ZM7.27703 20.108C6.78568 20.4663 6.18356 20.6395 5.5765 20.5962C4.96998 20.6395 4.36731 20.4669 3.87596 20.108C3.22174 19.4724 3.22174 17.3591 3.87596 16.7098C4.52579 16.0561 6.62226 16.0742 7.27703 16.7098C7.93125 17.3454 7.93125 19.4587 7.27703 20.108Z" fill="black"/>
<path d="M9.87966 14.1033C8.21861 12.4902 2.89545 12.4437 1.24591 14.1033C-0.415141 15.7515 -0.415141 21.1167 1.24591 22.7298C2.49294 23.6399 4.02238 24.0787 5.56279 23.9686C7.1032 24.0787 8.63264 23.6399 9.87966 22.7298C11.5407 21.0816 11.5407 15.7164 9.87966 14.1033ZM7.27703 20.108C6.78568 20.4663 6.18356 20.6395 5.5765 20.5962C4.96998 20.6395 4.36731 20.4669 3.87596 20.108C3.22174 19.4724 3.22174 17.3591 3.87596 16.7098C4.52579 16.0561 6.62226 16.0742 7.27703 16.7098C7.93125 17.3454 7.93125 19.4587 7.27703 20.108Z" fill="url(#paint3_linear_1690_1372)"/>
<path d="M9.87966 14.1033C8.21861 12.4902 2.89545 12.4437 1.24591 14.1033C-0.415141 15.7515 -0.415141 21.1167 1.24591 22.7298C2.49294 23.6399 4.02238 24.0787 5.56279 23.9686C7.1032 24.0787 8.63264 23.6399 9.87966 22.7298C11.5407 21.0816 11.5407 15.7164 9.87966 14.1033ZM7.27703 20.108C6.78568 20.4663 6.18356 20.6395 5.5765 20.5962C4.96998 20.6395 4.36731 20.4669 3.87596 20.108C3.22174 19.4724 3.22174 17.3591 3.87596 16.7098C4.52579 16.0561 6.62226 16.0742 7.27703 16.7098C7.93125 17.3454 7.93125 19.4587 7.27703 20.108Z" fill="url(#paint4_linear_1690_1372)"/>
<path d="M20.2605 19.9834C20.7579 19.2503 20.7492 17.5413 20.2353 16.8521C20.7014 17.1518 21.2531 17.2937 21.8092 17.2537C22.4157 17.297 23.0184 17.1244 23.5097 16.7655C24.1639 16.1162 24.1639 14.0029 23.5097 13.3673C22.8555 12.7317 20.7585 12.7136 20.1086 13.3673C19.4983 13.9727 19.4577 15.8521 19.9858 16.6175C19.2636 16.1398 17.6086 16.1266 16.888 16.6132C17.415 15.8357 17.3739 13.9596 16.7641 13.3673C16.1098 12.7317 14.0128 12.7136 13.363 13.3673C12.7088 14.0166 12.7088 16.1299 13.363 16.7655C13.8543 17.1238 14.4565 17.297 15.0635 17.2537C15.6201 17.2937 16.1734 17.1507 16.6401 16.8499C16.123 17.5479 16.1137 19.2645 16.6127 19.9878C15.8334 19.4728 13.9689 19.4974 13.363 20.1073C12.7088 20.7565 12.7088 22.8699 13.363 23.5055C13.8543 23.8638 14.4565 24.0369 15.0635 23.9936C15.67 24.0369 16.2727 23.8643 16.7641 23.5055C17.3837 22.8907 17.4161 20.9647 16.8628 20.2218C17.3289 20.5215 17.8806 20.6634 18.4366 20.6234C18.9932 20.6634 19.5466 20.5204 20.0132 20.2196C19.4566 20.9708 19.4879 22.9022 20.1086 23.5049C20.6 23.8632 21.2021 24.0364 21.8092 23.9931C22.4157 24.0364 23.0184 23.8638 23.5097 23.5049C24.1639 22.8556 24.1639 20.7423 23.5097 20.1067C22.8999 19.5144 21.0376 19.4585 20.2611 19.9829L20.2605 19.9834Z" fill="url(#paint5_linear_1690_1372)"/>
<path d="M20.2605 19.9834C20.7579 19.2503 20.7492 17.5413 20.2353 16.8521C20.7014 17.1518 21.2531 17.2937 21.8092 17.2537C22.4157 17.297 23.0184 17.1244 23.5097 16.7655C24.1639 16.1162 24.1639 14.0029 23.5097 13.3673C22.8555 12.7317 20.7585 12.7136 20.1086 13.3673C19.4983 13.9727 19.4577 15.8521 19.9858 16.6175C19.2636 16.1398 17.6086 16.1266 16.888 16.6132C17.415 15.8357 17.3739 13.9596 16.7641 13.3673C16.1098 12.7317 14.0128 12.7136 13.363 13.3673C12.7088 14.0166 12.7088 16.1299 13.363 16.7655C13.8543 17.1238 14.4565 17.297 15.0635 17.2537C15.6201 17.2937 16.1734 17.1507 16.6401 16.8499C16.123 17.5479 16.1137 19.2645 16.6127 19.9878C15.8334 19.4728 13.9689 19.4974 13.363 20.1073C12.7088 20.7565 12.7088 22.8699 13.363 23.5055C13.8543 23.8638 14.4565 24.0369 15.0635 23.9936C15.67 24.0369 16.2727 23.8643 16.7641 23.5055C17.3837 22.8907 17.4161 20.9647 16.8628 20.2218C17.3289 20.5215 17.8806 20.6634 18.4366 20.6234C18.9932 20.6634 19.5466 20.5204 20.0132 20.2196C19.4566 20.9708 19.4879 22.9022 20.1086 23.5049C20.6 23.8632 21.2021 24.0364 21.8092 23.9931C22.4157 24.0364 23.0184 23.8638 23.5097 23.5049C24.1639 22.8556 24.1639 20.7423 23.5097 20.1067C22.8999 19.5144 21.0376 19.4585 20.2611 19.9829L20.2605 19.9834Z" fill="url(#paint6_linear_1690_1372)"/>
</g>
<defs>
<linearGradient id="paint0_linear_1690_1372" x1="0.00814311" y1="-7.6822e-08" x2="11.1174" y2="11.1093" gradientUnits="userSpaceOnUse">
<stop stop-color="#C0C8CC"/>
<stop offset="1" stop-color="#343842"/>
</linearGradient>
<linearGradient id="paint1_linear_1690_1372" x1="18.4357" y1="0.0214844" x2="18.4357" y2="11.12" gradientUnits="userSpaceOnUse">
<stop stop-color="#5ACEFF"/>
<stop offset="1" stop-color="#1049F6"/>
</linearGradient>
<linearGradient id="paint2_linear_1690_1372" x1="12.8844" y1="0.0214843" x2="23.9829" y2="11.1241" gradientUnits="userSpaceOnUse">
<stop stop-color="#C0C8CC"/>
<stop offset="1" stop-color="#343842"/>
</linearGradient>
<linearGradient id="paint3_linear_1690_1372" x1="5.56279" y1="12.876" x2="5.56279" y2="23.9853" gradientUnits="userSpaceOnUse">
<stop stop-color="#5ACEFF"/>
<stop offset="1" stop-color="#1049F6"/>
</linearGradient>
<linearGradient id="paint4_linear_1690_1372" x1="0.00814311" y1="12.876" x2="11.1174" y2="23.9853" gradientUnits="userSpaceOnUse">
<stop stop-color="#C0C8CC"/>
<stop offset="1" stop-color="#343842"/>
</linearGradient>
<linearGradient id="paint5_linear_1690_1372" x1="18.4363" y1="12.8838" x2="18.4363" y2="24.0002" gradientUnits="userSpaceOnUse">
<stop stop-color="#5ACEFF"/>
<stop offset="1" stop-color="#1049F6"/>
</linearGradient>
<linearGradient id="paint6_linear_1690_1372" x1="12.8803" y1="12.8838" x2="23.9967" y2="23.9958" gradientUnits="userSpaceOnUse">
<stop stop-color="#C0C8CC"/>
<stop offset="1" stop-color="#343842"/>
</linearGradient>
<clipPath id="clip0_1690_1372">
<rect width="24" height="24" fill="white"/>
</clipPath>
</defs>
</svg>
