<svg width="12" height="12" viewBox="0 0 12 12" fill="none" xmlns="http://www.w3.org/2000/svg">
<g clip-path="url(#clip0_1715_285)">
<path fill-rule="evenodd" clip-rule="evenodd" d="M0.811129 4.90975C1.2002 5.13389 1.44184 5.55145 1.44184 5.99998C1.44184 6.44828 1.20023 6.86584 0.812266 7.08976C0.414091 7.31867 0.24848 7.7943 0.418642 8.22061C0.631914 8.7591 0.922303 9.26206 1.27962 9.71571C1.56435 10.0769 2.05893 10.1715 2.45708 9.94111C2.84502 9.71571 3.32827 9.71503 3.71735 9.93941C4.10531 10.1638 4.34579 10.582 4.34465 11.0314C4.34465 11.491 4.67362 11.8725 5.12848 11.9383C5.70104 12.0211 6.28259 12.0206 6.85499 11.9366C7.30874 11.8703 7.63769 11.4891 7.63657 11.0303C7.63657 10.5816 7.87708 10.1636 8.26501 9.93942C8.65411 9.71528 9.1362 9.71574 9.52528 9.94089C9.92343 10.1713 10.418 10.0762 10.7027 9.71503C10.881 9.48836 11.0429 9.24924 11.1871 8.99948C11.3312 8.75002 11.4571 8.48856 11.5637 8.22278C11.735 7.79581 11.5694 7.3195 11.1712 7.09001C10.7821 6.86609 10.5405 6.4483 10.5405 6C10.5405 5.5517 10.7821 5.13425 11.1701 4.90999C11.5682 4.68106 11.7339 4.20567 11.5637 3.77949C11.3508 3.24195 11.0608 2.73827 10.7027 2.28429C10.418 1.9231 9.92343 1.82851 9.52528 2.05889C9.13732 2.28429 8.65409 2.28475 8.26501 2.06059C7.87708 1.8362 7.63657 1.41796 7.63657 0.968642C7.63771 0.509107 7.30763 0.127634 6.85388 0.0616987C6.57025 0.0206388 6.28403 1.9013e-05 5.99745 -5.96983e-07C5.70704 -6.22371e-07 5.41665 0.0211069 5.12739 0.0634175C4.67364 0.129788 4.3447 0.510705 4.3447 0.969441C4.34583 1.41842 4.10536 1.83645 3.7174 2.06059C3.32832 2.28472 2.8462 2.28426 2.45713 2.05911C2.05898 1.82872 1.56439 1.92356 1.27967 2.28497C1.10147 2.51164 0.939609 2.75069 0.795299 3.0003C0.652368 3.24974 0.524177 3.51122 0.418691 3.77722C0.247343 4.20419 0.412954 4.68062 0.811129 4.90975ZM4.44788 5.10872C4.68497 4.69648 5.06952 4.40144 5.53005 4.27824C5.98946 4.15506 6.47044 4.21823 6.88222 4.45646C7.73298 4.94787 8.02565 6.03991 7.53448 6.89126C7.2055 7.46231 6.6043 7.78196 5.98835 7.78196C5.68547 7.78196 5.38031 7.70528 5.10014 7.54351C4.24938 7.05222 3.95671 5.95984 4.44788 5.10872Z" fill="black"/>
</g>
<defs>
<clipPath id="clip0_1715_285">
<rect width="12" height="12" fill="white"/>
</clipPath>
</defs>
</svg>
