<?xml version="1.0" encoding="utf-8"?>
<!-- Generator: Adobe Illustrator 23.0.4, SVG Export Plug-In . SVG Version: 6.00 Build 0)  -->
<svg version="1.1" id="Слой_1" xmlns="http://www.w3.org/2000/svg" xmlns:xlink="http://www.w3.org/1999/xlink" x="0px" y="0px"
	 viewBox="0 0 20 20" style="enable-background:new 0 0 20 20;" xml:space="preserve">
<style type="text/css">
	.st0{fill-rule:evenodd;clip-rule:evenodd;fill:#405EF6;}
</style>
<g>
	<path class="st0" d="M0.004,1.23v17.54c0,0.68,0.551,1.231,1.231,1.231h17.539c0.68,0,1.231-0.551,1.231-1.231V1.23
		c0-0.68-0.551-1.231-1.231-1.231H1.235C0.555-0.001,0.004,0.55,0.004,1.23z M18.464,1.539v11.894l-5.59-5.389
		c-0.435-0.42-1.111-0.461-1.594-0.098l-2.839,2.135L5.946,7.674c-0.435-0.419-1.11-0.461-1.593-0.098l-2.809,2.11V1.539H18.464z
		 M1.544,11.612l3.523-2.646l2.129,2.053L1.544,15.27V11.612z M1.544,18.461v-1.265l10.452-7.862l6.469,6.237v2.89H1.544z"/>
	<circle class="st0" cx="14.758" cy="5.039" r="1.154"/>
</g>
</svg>
