<svg width="36" height="37" viewBox="0 0 36 37" fill="none" xmlns="http://www.w3.org/2000/svg">
<rect y="0.499023" width="36" height="36" rx="10" fill="white"/>
<g clip-path="url(#clip0_936_191)">
<path d="M21.32 8.49902H14.68C11 8.49902 8 11.499 8 15.179V21.819C8 25.499 11 28.499 14.68 28.499H21.32C25 28.499 28 25.499 28 21.819V15.179C28 11.499 25 8.49902 21.32 8.49902ZM25.98 21.819C25.98 24.389 23.89 26.479 21.32 26.479H14.68C12.11 26.479 10.02 24.389 10.02 21.819V15.179C10.02 12.609 12.11 10.519 14.68 10.519H21.32C23.89 10.519 25.98 12.609 25.98 15.179V21.819Z" fill="black"/>
<path d="M23.2998 14.8192L18.9698 17.6292C18.3898 18.0092 17.6398 18.0092 17.0598 17.6292L12.7398 14.8192C12.2798 14.5192 11.6598 14.6492 11.3598 15.1192C11.0498 15.5792 11.1898 16.1992 11.6498 16.4992L15.9798 19.3092C16.5998 19.7092 17.3098 19.9092 18.0198 19.9092C18.7298 19.9092 19.4398 19.7092 20.0598 19.3092L24.3898 16.4992C24.8498 16.1992 24.9898 15.5792 24.6898 15.1192C24.3898 14.6592 23.7698 14.5192 23.2998 14.8192Z" fill="black"/>
</g>
<defs>
<clipPath id="clip0_936_191">
<rect width="20" height="20" fill="white" transform="translate(8 8.49902)"/>
</clipPath>
</defs>
</svg>
