<svg width="36" height="37" viewBox="0 0 36 37" fill="none" xmlns="http://www.w3.org/2000/svg">
<rect y="0.32666" width="36" height="36" rx="10" fill="url(#paint0_linear_936_173)"/>
<g clip-path="url(#clip0_936_173)">
<path d="M28 18.3267C28 12.8039 23.5228 8.32666 18 8.32666C12.4772 8.32666 8 12.8039 8 18.3267C8 23.0163 11.2288 26.9515 15.5844 28.0323V21.3827H13.5224V18.3267H15.5844V17.0099C15.5844 13.6063 17.1248 12.0287 20.4664 12.0287C21.1 12.0287 22.1932 12.1531 22.6404 12.2771V15.0471C22.4044 15.0223 21.9944 15.0099 21.4852 15.0099C19.8456 15.0099 19.212 15.6311 19.212 17.2459V18.3267H22.4784L21.9172 21.3827H19.212V28.2535C24.1636 27.6555 28.0004 23.4395 28.0004 18.3267H28Z" fill="white"/>
<path d="M21.9168 21.3828L22.478 18.3268H19.2116V17.246C19.2116 15.6312 19.8452 15.01 21.4848 15.01C21.994 15.01 22.404 15.0224 22.64 15.0472V12.2772C22.1928 12.1528 21.0996 12.0288 20.466 12.0288C17.1244 12.0288 15.584 13.6064 15.584 17.01V18.3268H13.522V21.3828H15.584V28.0324C16.3576 28.2244 17.1668 28.3268 17.9996 28.3268C18.4096 28.3268 18.814 28.3016 19.2112 28.2536V21.3828H21.9164H21.9168Z" fill="#0866FF"/>
</g>
<defs>
<linearGradient id="paint0_linear_936_173" x1="36" y1="0.32666" x2="4.29153e-06" y2="36.3267" gradientUnits="userSpaceOnUse">
<stop stop-color="#2F7EFF"/>
<stop offset="1" stop-color="#085EEB"/>
</linearGradient>
<clipPath id="clip0_936_173">
<rect width="20" height="20" fill="white" transform="translate(8 8.32666)"/>
</clipPath>
</defs>
</svg>
