<svg width="36" height="37" viewBox="0 0 36 37" fill="none" xmlns="http://www.w3.org/2000/svg">
<rect y="0.32666" width="36" height="35.9993" rx="10" fill="url(#paint0_linear_936_174)"/>
<path d="M27.0001 27.3821H23.2768V21.5374C23.2768 20.1392 23.2517 18.3506 21.3397 18.3506C19.4278 18.3506 19.1007 19.8747 19.1007 21.4367V27.3821H15.3774V15.3527H18.9498V16.9902H19.0001C19.3523 16.373 19.8806 15.8691 20.4969 15.529C21.1133 15.1889 21.8177 15.0252 22.5347 15.0504C26.3083 15.0504 27.0127 17.5444 27.0127 20.7817V27.3821H27.0001Z" fill="white"/>
<path d="M11.1636 13.715C10.7359 13.715 10.3208 13.589 9.95601 13.3497C9.60381 13.1104 9.32708 12.7703 9.16356 12.3798C9.00003 11.9767 8.9623 11.5484 9.03777 11.1201C9.12582 10.7045 9.32708 10.314 9.62897 10.0117C9.93085 9.70937 10.3208 9.50783 10.7359 9.41966C11.1636 9.34408 11.5912 9.38187 11.9937 9.54562C12.3837 9.70937 12.7233 9.98649 12.9623 10.3392C13.2013 10.6919 13.3271 11.1201 13.3271 11.5484C13.3271 11.8381 13.2768 12.1153 13.1636 12.3798C13.0503 12.6443 12.8994 12.8836 12.6981 13.0852C12.4969 13.2867 12.2579 13.4504 11.9937 13.5512C11.7296 13.6646 11.4529 13.715 11.1636 13.715Z" fill="white"/>
<path d="M13.0376 15.3525H9.30176V27.3693H13.0376V15.3525Z" fill="white"/>
<defs>
<linearGradient id="paint0_linear_936_174" x1="36" y1="0.326171" x2="-2.42987e-07" y2="36.3262" gradientUnits="userSpaceOnUse">
<stop stop-color="#217EDC"/>
<stop offset="1" stop-color="#055DB6"/>
</linearGradient>
</defs>
</svg>
