<svg width="36" height="37" viewBox="0 0 36 37" fill="none" xmlns="http://www.w3.org/2000/svg">
<rect y="0.674316" width="36" height="35.9993" rx="10" fill="url(#paint0_radial_936_188)"/>
<g clip-path="url(#clip0_936_188)">
<path fill-rule="evenodd" clip-rule="evenodd" d="M8 18.4295C8 12.856 12.3668 8.72949 18.0001 8.72949C23.6333 8.72949 28.0001 12.856 28.0001 18.4295C28.0001 24.0031 23.6333 28.1296 18.0001 28.1296C16.9881 28.1296 16.0173 27.9959 15.1053 27.7451C14.928 27.6964 14.7395 27.7101 14.5713 27.7844L12.5865 28.6606C12.0673 28.8896 11.4813 28.5206 11.4638 27.9531L11.4093 26.1743C11.4025 25.9551 11.3038 25.7503 11.1405 25.6041C9.19476 23.8641 8 21.3448 8 18.4295ZM14.9325 16.6058L11.995 21.2663H11.9948C11.7128 21.7136 12.2625 22.2176 12.6838 21.8981L15.839 19.5033C16.0526 19.3413 16.3476 19.3406 16.5618 19.5013L18.8983 21.2536C19.5993 21.7793 20.6001 21.5946 21.0673 20.8533L24.0048 16.1928C24.2868 15.7455 23.7371 15.2415 23.3158 15.561L20.1606 17.9558C19.9471 18.1178 19.6521 18.1186 19.4378 17.9578L17.1016 16.2055C16.4003 15.6798 15.3998 15.8643 14.9325 16.6058Z" fill="white"/>
</g>
<defs>
<radialGradient id="paint0_radial_936_188" cx="0" cy="0" r="1" gradientUnits="userSpaceOnUse" gradientTransform="translate(7.02 36.4016) scale(39.24 39.2395)">
<stop stop-color="#0099FF"/>
<stop offset="0.61" stop-color="#A033FF"/>
<stop offset="0.93" stop-color="#FF5280"/>
<stop offset="1" stop-color="#FF7061"/>
</radialGradient>
<clipPath id="clip0_936_188">
<rect width="20" height="19.9993" fill="white" transform="translate(8 8.67432)"/>
</clipPath>
</defs>
</svg>
