<svg width="36" height="37" viewBox="0 0 36 37" fill="none" xmlns="http://www.w3.org/2000/svg">
<rect y="0.674805" width="36" height="35.9993" rx="10" fill="url(#paint0_linear_936_185)"/>
<g clip-path="url(#clip0_936_185)">
<path fill-rule="evenodd" clip-rule="evenodd" d="M25.1537 11.4353C23.3764 9.65574 21.0127 8.67522 18.4941 8.67432C13.3044 8.67432 9.08081 12.8975 9.079 18.0885C9.0781 19.748 9.51193 21.3678 10.3358 22.7952L9 27.6743L13.9911 26.3651C15.3661 27.1155 16.9145 27.5104 18.4901 27.5109H18.4941C23.6829 27.5109 27.907 23.2873 27.9088 18.0962C27.9097 15.5804 26.9314 13.2153 25.1537 11.4357V11.4353ZM18.4941 25.9209H18.491C17.087 25.9205 15.7097 25.5431 14.508 24.8303L14.2222 24.6606L11.2603 25.4375L12.0508 22.5496L11.8648 22.2535C11.0816 21.0075 10.6676 19.5674 10.6685 18.089C10.6703 13.7746 14.1807 10.2643 18.4973 10.2643C20.5874 10.2652 22.5521 11.08 24.0296 12.5594C25.5072 14.0383 26.3202 16.0047 26.3193 18.0953C26.3175 22.4102 22.8072 25.9205 18.4941 25.9205V25.9209ZM22.7864 20.0604C22.5512 19.9426 21.3946 19.3738 21.1788 19.2952C20.963 19.2167 20.8064 19.1774 20.6497 19.4131C20.4931 19.6487 20.0421 20.1787 19.9049 20.3353C19.7676 20.4924 19.6304 20.5119 19.3952 20.394C19.16 20.2762 18.402 20.0279 17.5032 19.2266C16.804 18.6027 16.3317 17.8326 16.1945 17.5969C16.0573 17.3613 16.1801 17.234 16.2974 17.1171C16.4031 17.0114 16.5326 16.8421 16.6505 16.7049C16.7683 16.5676 16.8071 16.4693 16.8857 16.3126C16.9642 16.1555 16.9249 16.0183 16.8663 15.9004C16.8076 15.7826 16.3372 14.6247 16.1408 14.1538C15.9498 13.6952 15.7558 13.7575 15.6117 13.7498C15.4745 13.743 15.3179 13.7417 15.1608 13.7417C15.0037 13.7417 14.749 13.8004 14.5332 14.036C14.3175 14.2716 13.7098 14.8409 13.7098 15.9984C13.7098 17.1559 14.5527 18.275 14.6705 18.4321C14.7883 18.5892 16.3295 20.9651 18.6891 21.9844C19.2503 22.2268 19.6886 22.3718 20.0304 22.4801C20.5938 22.6593 21.1066 22.6341 21.512 22.5736C21.9639 22.5059 22.9038 22.0043 23.0997 21.4549C23.2956 20.9055 23.2956 20.4342 23.2369 20.3362C23.1783 20.2383 23.0212 20.1791 22.7859 20.0613L22.7864 20.0604Z" fill="white"/>
</g>
<defs>
<linearGradient id="paint0_linear_936_185" x1="36" y1="0.674317" x2="8.29917e-07" y2="36.6743" gradientUnits="userSpaceOnUse">
<stop stop-color="#42F384"/>
<stop offset="1" stop-color="#11A94A"/>
</linearGradient>
<clipPath id="clip0_936_185">
<rect width="20" height="19.9993" fill="white" transform="translate(8 8.6748)"/>
</clipPath>
</defs>
</svg>
