<svg width="1000" height="1000" viewBox="0 0 1000 1000" fill="none" xmlns="http://www.w3.org/2000/svg">
<g clip-path="url(#clip0_1766_453)">
<path d="M1000 0H0V1000H1000V0Z" fill="#315EFB"/>
<mask id="mask0_1766_453" style="mask-type:luminance" maskUnits="userSpaceOnUse" x="250" y="250" width="500" height="500">
<path d="M750 250H250V750H750V250Z" fill="white"/>
</mask>
<g mask="url(#mask0_1766_453)">
<path d="M502.778 250C441.5 250 391.667 299.833 391.667 361.111V641.667C391.667 657 379.222 669.444 363.889 669.444C348.556 669.444 336.111 657 336.111 641.667V361.111C336.111 318.444 352.222 279.5 378.667 250H361.111C299.833 250 250 299.833 250 361.111V638.889C250 700.167 299.833 750 361.111 750C422.389 750 472.222 700.167 472.222 638.889V361.111C472.222 318.444 488.333 279.5 514.778 250H502.778Z" fill="white"/>
<path d="M638.897 250C577.619 250 527.784 299.833 527.784 361.111V638.889C527.784 681.556 511.673 720.5 485.229 750H502.784C564.062 750 613.897 700.167 613.897 638.889V577.778H669.451V638.889C669.451 681.556 653.34 720.5 626.897 750H638.897C700.173 750 750.008 700.167 750.008 638.889V361.111C750.008 299.833 700.173 250 638.897 250ZM669.451 400V491.667H613.897V363.889C613.897 348.556 626.34 336.111 641.673 336.111C657.008 336.111 669.451 348.556 669.451 363.889V400Z" fill="white"/>
</g>
</g>
<defs>
<clipPath id="clip0_1766_453">
<rect width="1000" height="1000" fill="white"/>
</clipPath>
</defs>
</svg>
