<svg width="32" height="32" viewBox="0 0 32 32" fill="none" xmlns="http://www.w3.org/2000/svg">
<g clip-path="url(#clip0_1765_327)">
<mask id="mask0_1765_327" style="mask-type:luminance" maskUnits="userSpaceOnUse" x="0" y="0" width="32" height="32">
<path d="M32 0H0V32H32V0Z" fill="white"/>
</mask>
<g mask="url(#mask0_1765_327)">
<path d="M16.1778 0C12.256 0 9.06667 3.18933 9.06667 7.11111V25.0667C9.06667 26.048 8.27022 26.8444 7.28889 26.8444C6.30756 26.8444 5.51111 26.048 5.51111 25.0667V7.11111C5.51111 4.38044 6.54222 1.888 8.23467 0H7.11111C3.18933 0 0 3.18933 0 7.11111V24.8889C0 28.8107 3.18933 32 7.11111 32C11.0329 32 14.2222 28.8107 14.2222 24.8889V7.11111C14.2222 4.38044 15.2533 1.888 16.9458 0H16.1778Z" fill="url(#paint0_linear_1765_327)"/>
<path d="M24.8889 0C20.9671 0 17.7778 3.18933 17.7778 7.11111V24.8889C17.7778 27.6196 16.7466 30.112 15.0542 32H16.1778C20.0995 32 23.2889 28.8107 23.2889 24.8889V20.9778H26.8444V24.8889C26.8444 27.6196 25.8133 30.112 24.1209 32H24.8889C28.8106 32 32 28.8107 32 24.8889V7.11111C32 3.18933 28.8106 0 24.8889 0ZM26.8444 9.6V15.4667H23.2889V7.28889C23.2889 6.30756 24.0853 5.51111 25.0666 5.51111C26.048 5.51111 26.8444 6.30756 26.8444 7.28889V9.6Z" fill="url(#paint1_linear_1765_327)"/>
</g>
</g>
<defs>
<linearGradient id="paint0_linear_1765_327" x1="0.620206" y1="-2.57732e-07" x2="26.2442" y2="14.641" gradientUnits="userSpaceOnUse">
<stop stop-color="white"/>
<stop offset="1" stop-color="#D1E1F3"/>
</linearGradient>
<linearGradient id="paint1_linear_1765_327" x1="15.6744" y1="-1.40035e-06" x2="41.2984" y2="14.641" gradientUnits="userSpaceOnUse">
<stop stop-color="white"/>
<stop offset="1" stop-color="#D1E1F3"/>
</linearGradient>
<clipPath id="clip0_1765_327">
<rect width="32" height="32" fill="white"/>
</clipPath>
</defs>
</svg>
